<svg width="111" height="111" viewBox="0 0 111 111" fill="none" xmlns="http://www.w3.org/2000/svg">
<rect width="111" height="111" rx="55.5" fill="#8DD8DA"/>
<path d="M19 48.3105C17.8954 48.3105 17 47.4151 17 46.3105V35C17 33.8954 17.8954 33 19 33H92C93.1046 33 94 33.8954 94 35V46.3105C94 47.4151 93.1046 48.3105 92 48.3105H68.3761C67.2715 48.3105 66.3761 49.206 66.3761 50.3105V109C66.3761 110.105 65.4807 111 64.3761 111H46.6684C45.5638 111 44.6684 110.105 44.6684 109V50.3105C44.6684 49.206 43.773 48.3105 42.6684 48.3105H19Z" fill="white"/>
</svg>
