<svg width="111" height="111" viewBox="0 0 111 111" fill="none" xmlns="http://www.w3.org/2000/svg">
<rect width="111" height="111" rx="55.5" fill="url(#paint0_linear_2117_492)"/>
<ellipse cx="22.047" cy="16.655" rx="22.047" ry="16.655" transform="matrix(0.961117 -0.276143 -0.275132 -0.961406 12.165 85.5195)" fill="white"/>
<ellipse cx="6.53512" cy="4.93685" rx="6.53512" ry="4.93685" transform="matrix(0.961117 -0.276143 -0.275132 -0.961406 41.938 43.1019)" fill="white"/>
<ellipse cx="6.53512" cy="4.93685" rx="6.53512" ry="4.93685" transform="matrix(0.965926 0.258819 0.259834 -0.965653 58.5088 39.6266)" fill="white"/>
<ellipse cx="22.047" cy="16.655" rx="22.047" ry="16.655" transform="matrix(0.965926 0.258819 0.259834 -0.965653 54.7539 73.7963)" fill="white"/>
<ellipse cx="11.1928" cy="4.05547" rx="11.1928" ry="4.05547" transform="matrix(0.968755 -0.24802 -0.247001 -0.969015 21.3633 69.9169)" fill="#3A486D"/>
<ellipse cx="11.1928" cy="3.78111" rx="11.1928" ry="3.78111" transform="matrix(0.965518 0.260337 0.261352 -0.965244 68.4395 64.3506)" fill="#3A486D"/>
<defs>
<linearGradient id="paint0_linear_2117_492" x1="55.5" y1="0" x2="55.5" y2="111" gradientUnits="userSpaceOnUse">
<stop stop-color="#8DD8DA"/>
<stop offset="1" stop-color="#B9DDDE"/>
</linearGradient>
</defs>
</svg>
