<svg width="567" height="112" viewBox="0 0 567 112" fill="none" xmlns="http://www.w3.org/2000/svg">
<path d="M450.567 110.016C449.626 110.016 448.813 109.36 448.613 108.441L437.585 57.7362C437.314 56.4895 438.264 55.3112 439.54 55.3112H449.983C450.954 55.3112 451.784 56.0087 451.952 56.9651L457.785 90.1646C457.805 90.2754 457.901 90.3563 458.013 90.3563C458.125 90.3563 458.22 90.277 458.241 90.1675L464.501 56.9408C464.68 55.9957 465.505 55.3112 466.467 55.3112H477.408C478.365 55.3112 479.188 55.9892 479.371 56.9286L485.801 89.9194C485.822 90.0283 485.917 90.107 486.028 90.107C486.141 90.107 486.238 90.0256 486.257 89.9143L491.917 56.9725C492.082 56.0127 492.914 55.3112 493.888 55.3112H504.323C505.599 55.3112 506.549 56.4903 506.277 57.7372L495.222 108.442C495.022 109.361 494.209 110.016 493.268 110.016H480.925C479.989 110.016 479.178 109.366 478.973 108.453L472.24 78.387C472.208 78.2428 472.08 78.1403 471.932 78.1403C471.784 78.1403 471.656 78.2428 471.624 78.387L464.891 108.453C464.686 109.366 463.875 110.016 462.939 110.016H450.567Z" fill="#8DD8DA"/>
<path d="M376.953 44.1069C375.849 44.1069 374.953 43.2114 374.953 42.1069V30C374.953 28.8954 375.849 28 376.953 28H445.568C446.672 28 447.568 28.8954 447.568 30V42.1069C447.568 43.2114 446.672 44.1069 445.568 44.1069H423.517C422.413 44.1069 421.517 45.0023 421.517 46.1069V108.057C421.517 109.161 420.622 110.057 419.517 110.057H403.046C401.941 110.057 401.046 109.161 401.046 108.057V46.1069C401.046 45.0023 400.15 44.1069 399.046 44.1069H376.953Z" fill="#8DD8DA"/>
<path d="M353.891 111.451C347.775 111.451 342.497 110.32 338.056 108.059C333.64 105.774 330.24 102.525 327.854 98.3119C325.494 94.075 324.314 89.0408 324.314 83.2091C324.314 77.5441 325.507 72.5931 327.892 68.3562C330.278 64.0955 333.64 60.787 337.98 58.4305C342.319 56.0502 347.433 54.8601 353.32 54.8601C357.482 54.8601 361.289 55.4671 364.74 56.681C368.191 57.8949 371.173 59.6921 373.686 62.0723C376.198 64.4526 378.152 67.3922 379.548 70.8912C380.943 74.3664 381.641 78.3534 381.641 82.8521V87.208H330.823V77.068H364.321C364.296 75.2114 363.826 73.5571 362.913 72.1052C361.999 70.6532 360.743 69.5226 359.144 68.7133C357.571 67.8802 355.756 67.4636 353.701 67.4636C351.62 67.4636 349.755 67.904 348.105 68.7847C346.456 69.6416 345.149 70.8198 344.184 72.3194C343.22 73.7951 342.713 75.4732 342.662 77.3536V87.6721C342.662 89.9096 343.131 91.8733 344.07 93.5633C345.009 95.2295 346.341 96.5267 348.067 97.455C349.793 98.3833 351.848 98.8475 354.234 98.8475C355.883 98.8475 357.381 98.6333 358.726 98.2048C360.071 97.7764 361.225 97.1456 362.19 96.3125C363.154 95.4794 363.877 94.4559 364.359 93.2419L381.451 93.7061C380.74 97.3003 379.18 100.43 376.769 103.096C374.383 105.738 371.249 107.797 367.367 109.273C363.484 110.725 358.992 111.451 353.891 111.451Z" fill="#8DD8DA"/>
<path d="M280.82 80.2801V108.016C280.82 109.12 279.924 110.016 278.82 110.016H265.165C264.06 110.016 263.165 109.12 263.165 108.016V59.8765C263.165 58.772 264.06 57.8765 265.165 57.8765H277.953C279.058 57.8765 279.953 58.772 279.953 59.8765V67.0851C279.953 67.2861 280.116 67.449 280.317 67.449C280.467 67.449 280.602 67.356 280.658 67.2163C281.897 64.1364 283.961 61.7133 286.849 59.9472C289.809 58.1141 293.335 57.1976 297.427 57.1976C301.326 57.1976 304.708 58.0236 307.572 59.6756C310.46 61.305 312.699 63.5906 314.287 66.5325C315.9 69.4517 316.694 72.8688 316.67 76.7838V108.016C316.67 109.12 315.775 110.016 314.67 110.016H301.016C299.911 110.016 299.016 109.12 299.016 108.016V80.0425C299.04 77.1459 298.257 74.8829 296.669 73.2535C295.104 71.6242 292.926 70.8095 290.134 70.8095C288.281 70.8095 286.644 71.1942 285.224 71.9636C283.828 72.7104 282.745 73.7853 281.975 75.1884C281.229 76.5915 280.844 78.2887 280.82 80.2801Z" fill="#8DD8DA"/>
<path d="M538.336 111.451C532.377 111.451 527.255 110.273 522.97 107.916C518.71 105.536 515.423 102.227 513.108 97.9906C510.818 93.7299 509.673 88.7908 509.673 83.1734C509.673 77.5322 510.818 72.5931 513.108 68.3562C515.423 64.0955 518.71 60.787 522.97 58.4305C527.255 56.0502 532.377 54.8601 538.336 54.8601C544.296 54.8601 549.405 56.0502 553.665 58.4305C557.95 60.787 561.238 64.0955 563.528 68.3562C565.843 72.5931 567 77.5322 567 83.1734C567 88.7908 565.843 93.7299 563.528 97.9906C561.238 102.227 557.95 105.536 553.665 107.916C549.405 110.273 544.296 111.451 538.336 111.451ZM538.447 98.2762C540.614 98.2762 542.449 97.6335 543.951 96.3482C545.453 95.0629 546.598 93.2777 547.386 90.9926C548.199 88.7075 548.605 86.0654 548.605 83.0663C548.605 80.0196 548.199 77.3537 547.386 75.0686C546.598 72.7835 545.453 70.9983 543.951 69.713C542.449 68.4276 540.614 67.785 538.447 67.785C536.206 67.785 534.31 68.4276 532.759 69.713C531.232 70.9983 530.062 72.7835 529.25 75.0686C528.462 77.3537 528.068 80.0196 528.068 83.0663C528.068 86.0654 528.462 88.7075 529.25 90.9926C530.062 93.2777 531.232 95.0629 532.759 96.3482C534.31 97.6335 536.206 98.2762 538.447 98.2762Z" fill="#8DD8DA"/>
<path d="M226.858 111.451C220.898 111.451 215.776 110.273 211.491 107.916C207.231 105.536 203.944 102.227 201.629 97.9906C199.339 93.7299 198.194 88.7908 198.194 83.1734C198.194 77.5322 199.339 72.5931 201.629 68.3562C203.944 64.0955 207.231 60.787 211.491 58.4305C215.776 56.0502 220.898 54.8601 226.858 54.8601C232.817 54.8601 237.927 56.0502 242.187 58.4305C246.471 60.787 249.759 64.0955 252.049 68.3562C254.364 72.5931 255.521 77.5322 255.521 83.1734C255.521 88.7908 254.364 93.7299 252.049 97.9906C249.759 102.227 246.471 105.536 242.187 107.916C237.927 110.273 232.817 111.451 226.858 111.451ZM226.968 98.2762C229.135 98.2762 230.97 97.6335 232.472 96.3482C233.974 95.0629 235.119 93.2777 235.907 90.9926C236.72 88.7075 237.126 86.0654 237.126 83.0663C237.126 80.0196 236.72 77.3537 235.907 75.0686C235.119 72.7835 233.974 70.9983 232.472 69.713C230.97 68.4276 229.135 67.785 226.968 67.785C224.727 67.785 222.831 68.4276 221.28 69.713C219.753 70.9983 218.583 72.7835 217.771 75.0686C216.983 77.3537 216.589 80.0196 216.589 83.0663C216.589 86.0654 216.983 88.7075 217.771 90.9926C218.583 93.2777 219.753 95.0629 221.28 96.3482C222.831 97.6335 224.727 98.2762 226.968 98.2762Z" fill="#8DD8DA"/>
<path d="M140 44.1479C138.895 44.1479 138 43.2524 138 42.1479V30.041C138 28.9364 138.895 28.041 140 28.041H208.615C209.719 28.041 210.615 28.9364 210.615 30.041V42.1479C210.615 43.2524 209.719 44.1479 208.615 44.1479H186.564C185.459 44.1479 184.564 45.0433 184.564 46.1479V108.098C184.564 109.202 183.669 110.098 182.564 110.098H166.093C164.988 110.098 164.093 109.202 164.093 108.098V46.1479C164.093 45.0433 163.197 44.1479 162.093 44.1479H140Z" fill="#8DD8DA"/>
<path d="M107.013 69.7804C142.756 53.8624 105.837 9.02771 68.9718 1.24096C32.1064 -6.54579 -29.6667 23.3877 19.2228 60.8688C68.1122 98.3498 30.205 108.514 41.5189 108.514C52.8328 108.514 71.2692 85.6984 107.013 69.7804Z" fill="#C3CBE0"/>
<path d="M13.1343 65.5457C-4.51066 54.6217 -2.47715 39.5855 8.07411 26.3153C17.0378 15.0418 32.8167 5.46753 49.7023 1.9182C86.4638 -5.80907 149.886 35.4811 104.647 62.6837C78.3372 78.5041 78.3822 91.8254 80.8068 100.203C82.5513 106.231 85.5275 109.7 80.8068 109.7C69.5248 109.7 45.7694 85.75 13.1343 65.5457Z" fill="#8DD8DA"/>
<ellipse cx="17.2772" cy="13.0518" rx="17.2772" ry="13.0518" transform="matrix(0.961117 -0.276143 -0.275132 -0.961406 25.1953 68.3455)" fill="white"/>
<ellipse cx="5.12128" cy="3.86879" rx="5.12128" ry="3.86879" transform="matrix(0.961117 -0.276143 -0.275132 -0.961406 48.5269 35.1045)" fill="white"/>
<ellipse cx="5.12128" cy="3.86879" rx="5.12128" ry="3.86879" transform="matrix(0.965926 0.258819 0.259834 -0.965653 61.5127 32.3811)" fill="white"/>
<ellipse cx="17.2772" cy="13.0518" rx="17.2772" ry="13.0518" transform="matrix(0.965926 0.258819 0.259834 -0.965653 58.5703 59.1582)" fill="white"/>
<ellipse cx="8.77128" cy="3.17809" rx="8.77128" ry="3.17809" transform="matrix(0.968755 -0.24802 -0.247001 -0.969015 32.4033 56.1182)" fill="#858EA6"/>
<ellipse cx="8.77128" cy="2.96308" rx="8.77128" ry="2.96308" transform="matrix(0.965518 0.260337 0.261352 -0.965244 69.2949 51.7561)" fill="#858EA6"/>
</svg>
