<svg width="620" height="112" viewBox="0 0 620 112" fill="none" xmlns="http://www.w3.org/2000/svg">
<path d="M107.013 69.7804C142.756 53.8624 105.837 9.02771 68.9718 1.24096C32.1064 -6.54579 -29.6667 23.3877 19.2228 60.8688C68.1122 98.3498 30.205 108.514 41.5189 108.514C52.8328 108.514 71.2692 85.6984 107.013 69.7804Z" fill="#C3CBE0"/>
<path d="M13.1343 65.5457C-4.51066 54.6217 -2.47716 39.5855 8.0741 26.3153C17.0378 15.0418 32.8167 5.46753 49.7023 1.9182C86.4638 -5.80907 149.886 35.4811 104.647 62.6837C78.3372 78.5041 78.3822 91.8254 80.8068 100.203C82.5513 106.231 85.5275 109.7 80.8068 109.7C69.5248 109.7 45.7694 85.75 13.1343 65.5457Z" fill="#8DD8DA"/>
<ellipse cx="17.2772" cy="13.0518" rx="17.2772" ry="13.0518" transform="matrix(0.961117 -0.276143 -0.275132 -0.961406 25.1951 68.3455)" fill="white"/>
<ellipse cx="5.12128" cy="3.86879" rx="5.12128" ry="3.86879" transform="matrix(0.961117 -0.276143 -0.275132 -0.961406 48.5271 35.1044)" fill="white"/>
<ellipse cx="5.12128" cy="3.86879" rx="5.12128" ry="3.86879" transform="matrix(0.965926 0.258819 0.259834 -0.965653 61.5127 32.3811)" fill="white"/>
<ellipse cx="17.2772" cy="13.0518" rx="17.2772" ry="13.0518" transform="matrix(0.965926 0.258819 0.259834 -0.965653 58.5703 59.1582)" fill="white"/>
<ellipse cx="8.77128" cy="3.17809" rx="8.77128" ry="3.17809" transform="matrix(0.968755 -0.24802 -0.247001 -0.969015 32.4033 56.1182)" fill="#858EA6"/>
<ellipse cx="8.77128" cy="2.96308" rx="8.77128" ry="2.96308" transform="matrix(0.965518 0.260337 0.261352 -0.965244 69.2949 51.756)" fill="#858EA6"/>
<path d="M171.4 39.664H150.216V25.52H208.52V39.664H187.4V110H171.4V39.664ZM234.93 111.536C229.341 111.536 224.349 110.341 219.954 107.952C215.602 105.563 212.189 102.299 209.714 98.16C207.239 93.9787 206.002 89.2213 206.002 83.888C206.002 78.5547 207.239 73.7973 209.714 69.616C212.189 65.392 215.602 62.064 219.954 59.632C224.349 57.1573 229.341 55.92 234.93 55.92C240.562 55.92 245.533 57.1573 249.842 59.632C254.151 62.064 257.522 65.392 259.954 69.616C262.386 73.7973 263.602 78.5547 263.602 83.888C263.602 89.2213 262.386 93.9787 259.954 98.16C257.522 102.299 254.151 105.563 249.842 107.952C245.533 110.341 240.562 111.536 234.93 111.536ZM234.93 98.032C237.618 98.032 239.943 97.4347 241.906 96.24C243.911 95.0027 245.447 93.3173 246.514 91.184C247.623 89.008 248.178 86.5547 248.178 83.824C248.178 81.0933 247.623 78.64 246.514 76.464C245.447 74.288 243.911 72.5813 241.906 71.344C239.943 70.064 237.618 69.424 234.93 69.424C232.242 69.424 229.895 70.064 227.89 71.344C225.927 72.5813 224.391 74.288 223.282 76.464C222.173 78.64 221.618 81.0933 221.618 83.824C221.618 86.5547 222.173 89.008 223.282 91.184C224.391 93.3173 225.927 95.0027 227.89 96.24C229.895 97.4347 232.242 98.032 234.93 98.032ZM308.049 55.92C311.633 55.92 315.132 56.6667 318.545 58.16C321.958 59.6107 324.753 61.936 326.929 65.136C329.148 68.336 330.257 72.5173 330.257 77.68V110H313.937V80.496C313.937 76.1867 312.913 72.9867 310.865 70.896C308.86 68.8053 306.214 67.76 302.929 67.76C300.796 67.76 298.748 68.3573 296.785 69.552C294.865 70.704 293.286 72.3253 292.049 74.416C290.854 76.464 290.257 78.8107 290.257 81.456V110H274.001V57.456H290.257V65.84C290.726 64.3893 291.793 62.896 293.457 61.36C295.121 59.824 297.233 58.544 299.793 57.52C302.353 56.4533 305.105 55.92 308.049 55.92ZM354.984 87.344C355.112 89.7333 355.752 91.8667 356.904 93.744C358.056 95.6213 359.72 97.0933 361.896 98.16C364.115 99.2267 366.76 99.76 369.832 99.76C372.605 99.76 375.037 99.4187 377.128 98.736C379.261 98.0533 381.053 97.2213 382.504 96.24C383.997 95.216 385.107 94.2347 385.832 93.296L392.552 103.28C391.357 104.773 389.757 106.16 387.752 107.44C385.789 108.677 383.272 109.659 380.2 110.384C377.171 111.152 373.373 111.536 368.808 111.536C363.048 111.536 357.992 110.405 353.64 108.144C349.288 105.883 345.896 102.619 343.464 98.352C341.032 94.0853 339.816 89.008 339.816 83.12C339.816 78 340.904 73.392 343.08 69.296C345.256 65.1573 348.413 61.8933 352.552 59.504C356.733 57.1147 361.747 55.92 367.592 55.92C373.096 55.92 377.853 56.9867 381.864 59.12C385.917 61.2107 389.053 64.2827 391.272 68.336C393.491 72.3893 394.6 77.3387 394.6 83.184C394.6 83.5253 394.579 84.2293 394.536 85.296C394.536 86.32 394.493 87.0027 394.408 87.344H354.984ZM379.368 77.296C379.325 75.9307 378.899 74.4587 378.088 72.88C377.32 71.3013 376.104 69.9573 374.44 68.848C372.776 67.7387 370.557 67.184 367.784 67.184C365.011 67.184 362.728 67.7173 360.936 68.784C359.187 69.8507 357.864 71.1733 356.968 72.752C356.072 74.288 355.56 75.8027 355.432 77.296H379.368ZM422.025 39.664H400.841V25.52H459.145V39.664H438.025V110H422.025V39.664ZM499.721 76.144L487.049 110H471.625L455.433 57.456H472.713L481.545 92.528L494.025 58.48H505.481L517.833 92.528L526.729 57.456H544.009L527.881 110H512.457L499.721 76.144ZM577.43 111.536C571.841 111.536 566.849 110.341 562.454 107.952C558.102 105.563 554.689 102.299 552.214 98.16C549.739 93.9787 548.502 89.2213 548.502 83.888C548.502 78.5547 549.739 73.7973 552.214 69.616C554.689 65.392 558.102 62.064 562.454 59.632C566.849 57.1573 571.841 55.92 577.43 55.92C583.062 55.92 588.033 57.1573 592.342 59.632C596.651 62.064 600.022 65.392 602.454 69.616C604.886 73.7973 606.102 78.5547 606.102 83.888C606.102 89.2213 604.886 93.9787 602.454 98.16C600.022 102.299 596.651 105.563 592.342 107.952C588.033 110.341 583.062 111.536 577.43 111.536ZM577.43 98.032C580.118 98.032 582.443 97.4347 584.406 96.24C586.411 95.0027 587.947 93.3173 589.014 91.184C590.123 89.008 590.678 86.5547 590.678 83.824C590.678 81.0933 590.123 78.64 589.014 76.464C587.947 74.288 586.411 72.5813 584.406 71.344C582.443 70.064 580.118 69.424 577.43 69.424C574.742 69.424 572.395 70.064 570.39 71.344C568.427 72.5813 566.891 74.288 565.782 76.464C564.673 78.64 564.118 81.0933 564.118 83.824C564.118 86.5547 564.673 89.008 565.782 91.184C566.891 93.3173 568.427 95.0027 570.39 96.24C572.395 97.4347 574.742 98.032 577.43 98.032Z" fill="#8DD8DA"/>
</svg>
