<svg width="659" height="121" viewBox="0 0 659 121" fill="none" xmlns="http://www.w3.org/2000/svg">
<path d="M118.201 73.5394C158.2 55.7899 119.457 10.0665 78.2021 1.3838C36.9476 -7.29888 -32.18 26.0787 22.5301 67.8723C77.2401 109.666 34.8198 121 47.4807 121C60.1417 121 78.2021 91.2889 118.201 73.5394Z" fill="#6AA4CF"/>
<path d="M16.7515 73.7435C-23.1348 56.1296 15.4996 10.7554 56.6379 2.13906C97.7762 -6.4773 166.709 26.6454 112.153 68.1197C57.5972 109.594 99.8979 120.842 87.2726 120.842C74.6474 120.842 56.6379 91.3574 16.7515 73.7435Z" fill="#68CBCE"/>
<ellipse cx="19.3289" cy="14.5575" rx="19.3289" ry="14.5575" transform="matrix(0.961378 -0.275231 -0.276044 -0.961145 24.0436 62.4329)" fill="white"/>
<ellipse cx="5.72944" cy="4.3151" rx="5.72944" ry="4.3151" transform="matrix(0.961378 -0.275231 -0.276044 -0.961145 50.6047 26.834)" fill="white"/>
<ellipse cx="5.72944" cy="4.3151" rx="5.72944" ry="4.3151" transform="matrix(0.961378 -0.275231 -0.276044 -0.961145 67.4797 26.834)" fill="white"/>
<ellipse cx="19.3289" cy="14.5575" rx="19.3289" ry="14.5575" transform="matrix(0.961378 -0.275231 -0.276044 -0.961145 69.2993 62.4329)" fill="white"/>
<ellipse cx="9.81289" cy="7.4077" rx="9.81289" ry="7.4077" transform="matrix(0.961378 -0.275231 -0.276044 -0.961145 31.6019 49.5773)" fill="#4E90C2"/>
<ellipse cx="9.81289" cy="7.4077" rx="9.81289" ry="7.4077" transform="matrix(0.961378 -0.275231 -0.276044 -0.961145 76.0906 49.5773)" fill="#4E90C2"/>
<path d="M527.434 107.407C526.493 107.407 525.679 106.751 525.48 105.831L512.924 47.8761C512.654 46.6298 513.603 45.4526 514.878 45.4526H527.195C528.166 45.4526 528.997 46.1508 529.165 47.1078L535.783 84.926C535.805 85.051 535.914 85.1422 536.041 85.1422C536.166 85.1422 536.274 85.0527 536.297 84.9292L543.401 47.0836C543.578 46.1379 544.404 45.4526 545.367 45.4526H558.132C559.089 45.4526 559.913 46.1313 560.095 47.0714L567.391 84.6482C567.414 84.7711 567.522 84.8599 567.647 84.8599C567.775 84.8599 567.884 84.768 567.905 84.6424L574.328 47.1152C574.493 46.1548 575.325 45.4526 576.3 45.4526H588.608C589.884 45.4526 590.833 46.6306 590.563 47.8771L577.975 105.832C577.775 106.751 576.962 107.407 576.021 107.407H561.686C560.749 107.407 559.938 106.757 559.734 105.843L552.091 71.5857C552.055 71.423 551.911 71.3073 551.744 71.3073C551.577 71.3073 551.433 71.423 551.397 71.5857L543.754 105.843C543.55 106.757 542.739 107.407 541.802 107.407H527.434Z" fill="#68CBCE"/>
<path d="M444.332 32.7632C443.227 32.7632 442.332 31.8678 442.332 30.7632V16.5217C442.332 15.4172 443.227 14.5217 444.332 14.5217H522.256C523.361 14.5217 524.256 15.4172 524.256 16.5217V30.7632C524.256 31.8678 523.361 32.7632 522.256 32.7632H496.866C495.761 32.7632 494.866 33.6587 494.866 34.7632V105.454C494.866 106.558 493.97 107.454 492.866 107.454H473.77C472.665 107.454 471.77 106.558 471.77 105.454V34.7632C471.77 33.6587 470.874 32.7632 469.77 32.7632H444.332Z" fill="#68CBCE"/>
<path d="M418.57 109.033C411.67 109.033 405.714 107.752 400.704 105.191C395.722 102.603 391.886 98.9236 389.194 94.1522C386.532 89.3538 385.2 83.6524 385.2 77.0478C385.2 70.632 386.546 65.0249 389.237 60.2265C391.929 55.4011 395.722 51.6541 400.618 48.9853C405.514 46.2896 411.283 44.9417 417.925 44.9417C422.621 44.9417 426.916 45.6291 430.809 47.0039C434.703 48.3788 438.067 50.414 440.902 53.1098C443.736 55.8055 445.941 59.1347 447.515 63.0974C449.09 67.0332 449.878 71.5485 449.878 76.6435V81.5766H392.544V70.0928H430.337C430.308 67.9902 429.779 66.1166 428.748 64.4722C427.717 62.8279 426.3 61.5474 424.496 60.6308C422.721 59.6873 420.674 59.2156 418.355 59.2156C416.007 59.2156 413.903 59.7143 412.042 60.7117C410.181 61.6822 408.706 63.0166 407.618 64.7149C406.53 66.3862 405.958 68.2867 405.901 70.4163V82.1023C405.901 84.6363 406.43 86.8603 407.49 88.7742C408.549 90.6612 410.052 92.1304 411.999 93.1817C413.946 94.2331 416.265 94.7587 418.956 94.7587C420.817 94.7587 422.506 94.5161 424.024 94.0309C425.541 93.5457 426.844 92.8313 427.932 91.8878C429.02 90.9443 429.836 89.7851 430.38 88.4103L449.663 88.936C448.861 93.0065 447.1 96.5514 444.38 99.5706C441.689 102.563 438.153 104.895 433.773 106.566C429.392 108.21 424.324 109.033 418.57 109.033Z" fill="#68CBCE"/>
<path d="M336.129 73.7305V105.407C336.129 106.512 335.234 107.407 334.129 107.407H318.212C317.107 107.407 316.212 106.512 316.212 105.407V50.3578C316.212 49.2532 317.107 48.3578 318.212 48.3578H333.152C334.256 48.3578 335.152 49.2532 335.152 50.3578V58.7886C335.152 59.0152 335.336 59.1989 335.562 59.1989C335.732 59.1989 335.884 59.0938 335.947 58.936C337.345 55.4476 339.673 52.7032 342.932 50.7029C346.272 48.6269 350.25 47.5889 354.866 47.5889C359.265 47.5889 363.08 48.5244 366.312 50.3953C369.57 52.2406 372.096 54.8291 373.888 58.1609C375.707 61.4671 376.603 65.337 376.576 69.7709V105.407C376.576 106.512 375.681 107.407 374.576 107.407H358.658C357.554 107.407 356.658 106.512 356.658 105.407V73.4614C356.685 70.1809 355.803 67.618 354.011 65.7727C352.246 63.9274 349.788 63.0048 346.638 63.0048C344.547 63.0048 342.701 63.4405 341.099 64.3119C339.524 65.1576 338.302 66.375 337.433 67.964C336.591 69.553 336.157 71.4752 336.129 73.7305Z" fill="#68CBCE"/>
<path d="M626.661 109.033C619.938 109.033 614.159 107.698 609.325 105.029C604.519 102.334 600.81 98.5867 598.198 93.7883C595.615 88.9629 594.323 83.3693 594.323 77.0074C594.323 70.6185 595.615 65.0249 598.198 60.2265C600.81 55.4011 604.519 51.6541 609.325 48.9853C614.159 46.2896 619.938 44.9417 626.661 44.9417C633.385 44.9417 639.15 46.2896 643.956 48.9853C648.79 51.6541 652.499 55.4011 655.083 60.2265C657.694 65.0249 659 70.6185 659 77.0074C659 83.3693 657.694 88.9629 655.083 93.7883C652.499 98.5867 648.79 102.334 643.956 105.029C639.15 107.698 633.385 109.033 626.661 109.033ZM626.786 94.1118C629.231 94.1118 631.301 93.3839 632.996 91.9282C634.69 90.4725 635.982 88.4507 636.871 85.8628C637.788 83.2749 638.247 80.2827 638.247 76.8861C638.247 73.4355 637.788 70.4163 636.871 67.8284C635.982 65.2405 634.69 63.2187 632.996 61.763C631.301 60.3074 629.231 59.5795 626.786 59.5795C624.258 59.5795 622.119 60.3074 620.369 61.763C618.646 63.2187 617.327 65.2405 616.41 67.8284C615.521 70.4163 615.076 73.4355 615.076 76.8861C615.076 80.2827 615.521 83.2749 616.41 85.8628C617.327 88.4507 618.646 90.4725 620.369 91.9282C622.119 93.3839 624.258 94.1118 626.786 94.1118Z" fill="#68CBCE"/>
<path d="M275.249 109.033C268.526 109.033 262.747 107.698 257.913 105.029C253.107 102.334 249.398 98.5866 246.787 93.7882C244.203 88.9629 242.911 83.3692 242.911 77.0073C242.911 70.6184 244.203 65.0248 246.787 60.2264C249.398 55.4011 253.107 51.654 257.913 48.9852C262.747 46.2895 268.526 44.9417 275.249 44.9417C281.973 44.9417 287.738 46.2895 292.544 48.9852C297.378 51.654 301.087 55.4011 303.671 60.2264C306.282 65.0248 307.588 70.6184 307.588 77.0073C307.588 83.3692 306.282 88.9629 303.671 93.7882C301.087 98.5866 297.378 102.334 292.544 105.029C287.738 107.698 281.973 109.033 275.249 109.033ZM275.374 94.1117C277.819 94.1117 279.889 93.3839 281.584 91.9282C283.278 90.4725 284.57 88.4507 285.459 85.8628C286.376 83.2749 286.835 80.2826 286.835 76.886C286.835 73.4355 286.376 70.4163 285.459 67.8284C284.57 65.2405 283.278 63.2187 281.584 61.763C279.889 60.3073 277.819 59.5794 275.374 59.5794C272.846 59.5794 270.707 60.3073 268.957 61.763C267.234 63.2187 265.915 65.2405 264.998 67.8284C264.109 70.4163 263.664 73.4355 263.664 76.886C263.664 80.2826 264.109 83.2749 264.998 85.8628C265.915 88.4507 267.234 90.4725 268.957 91.9282C270.707 93.3839 272.846 94.1117 275.374 94.1117Z" fill="#68CBCE"/>
<path d="M177 32.8097C175.895 32.8097 175 31.9142 175 30.8097V16.5682C175 15.4636 175.895 14.5682 177 14.5682H254.924C256.029 14.5682 256.924 15.4636 256.924 16.5682V30.8097C256.924 31.9142 256.029 32.8097 254.924 32.8097H229.534C228.429 32.8097 227.534 33.7051 227.534 34.8097V105.5C227.534 106.605 226.638 107.5 225.534 107.5H206.438C205.333 107.5 204.438 106.605 204.438 105.5V34.8097C204.438 33.7051 203.542 32.8097 202.438 32.8097H177Z" fill="#68CBCE"/>
</svg>
