<svg width="374" height="177" viewBox="0 0 374 177" fill="none" xmlns="http://www.w3.org/2000/svg">
<path d="M309.655 171.099C309.197 171.101 308.738 171.065 308.346 171.024C307.546 170.94 306.568 170.785 305.498 170.593C303.335 170.205 300.406 169.595 296.954 168.85C289.984 167.345 280.753 165.263 270.521 163.132C249.951 158.847 226.195 154.55 210.54 154.55C194.088 154.55 159.301 152.911 123.893 149.65C88.6628 146.406 52.0742 141.498 32.4216 134.776C21.7986 131.143 13.0964 123.874 8.49683 114.193C3.85848 104.431 3.60376 92.6527 9.12867 80.5558C20.0309 56.6858 53.1112 31.9124 119.315 15.2022C186.079 -1.64915 261.81 3.89529 311.693 20.7501C324.201 24.9764 335.219 29.9584 344.124 35.5704C352.984 41.1544 360.034 47.5401 364.224 54.6954C368.509 62.0126 369.741 70.0734 366.925 78.3302C364.18 86.3758 357.791 94.0296 348.032 101.262C329.614 114.912 318.706 125.696 312.54 134.08C306.374 142.464 305.24 148.039 305.535 151.477C305.823 154.841 307.563 157.146 309.449 158.855C310.421 159.735 311.309 160.352 312.167 160.982C312.422 161.169 313.179 161.709 313.747 162.341C313.901 162.513 315.019 163.693 315.139 165.579C315.215 166.764 314.879 167.974 314.129 168.976C313.459 169.87 312.658 170.337 312.17 170.567C310.998 171.118 309.856 171.098 309.655 171.099Z" fill="#68CBCE" stroke="white" stroke-width="10"/>
<ellipse cx="18.2944" cy="13.8202" rx="18.2944" ry="13.8202" transform="matrix(0.866923 -0.498442 -0.49753 -0.867447 52.9421 101.435)" fill="white"/>
<ellipse cx="18.2944" cy="13.8202" rx="18.2944" ry="13.8202" transform="matrix(0.866923 -0.498442 -0.49753 -0.867447 94.5161 91.1722)" fill="white"/>
<ellipse cx="9.28766" cy="7.03252" rx="9.28766" ry="7.03252" transform="matrix(0.866923 -0.498442 -0.49753 -0.867447 56.9597 87.8691)" fill="#4E90C2"/>
<ellipse cx="9.28766" cy="7.03252" rx="9.28766" ry="7.03252" transform="matrix(0.866923 -0.498442 -0.49753 -0.867447 97.8289 77.7802)" fill="#4E90C2"/>
<ellipse cx="7.58327" cy="5.72866" rx="7.58327" ry="5.72866" transform="matrix(0.856202 -0.516641 -0.51574 -0.856745 64.5842 65.5828)" fill="white"/>
<ellipse cx="7.58327" cy="5.72866" rx="7.58327" ry="5.72866" transform="matrix(0.856202 -0.516641 -0.51574 -0.856745 86.1448 59.7747)" fill="white"/>
</svg>
