<svg width="413" height="207" viewBox="0 0 413 207" fill="none" xmlns="http://www.w3.org/2000/svg">
<path d="M50.6377 125.276C-69.9332 95.058 46.8535 17.2149 171.209 2.43281C295.564 -12.3493 533.313 42.0769 339.023 115.628C144.733 189.179 301.978 206.077 263.813 206.077C225.649 206.077 171.209 155.494 50.6377 125.276Z" fill="#68CBCE"/>
<ellipse cx="24.6616" cy="18.6302" rx="24.6616" ry="18.6302" transform="matrix(0.866923 -0.498442 -0.49753 -0.867447 50.0532 109.638)" fill="white"/>
<ellipse cx="24.6616" cy="18.6302" rx="24.6616" ry="18.6302" transform="matrix(0.866923 -0.498442 -0.49753 -0.867447 106.097 95.803)" fill="white"/>
<ellipse cx="12.5202" cy="9.48015" rx="12.5202" ry="9.48015" transform="matrix(0.866923 -0.498442 -0.49753 -0.867447 55.4692 91.3502)" fill="#4E90C2"/>
<ellipse cx="12.5202" cy="9.48015" rx="12.5202" ry="9.48015" transform="matrix(0.866923 -0.498442 -0.49753 -0.867447 110.562 77.7498)" fill="#4E90C2"/>
<ellipse cx="10.2226" cy="7.72249" rx="10.2226" ry="7.72249" transform="matrix(0.856202 -0.516641 -0.51574 -0.856745 65.7473 61.3071)" fill="white"/>
<ellipse cx="10.2226" cy="7.72249" rx="10.2226" ry="7.72249" transform="matrix(0.856202 -0.516641 -0.51574 -0.856745 94.8118 53.4775)" fill="white"/>
</svg>
