<svg width="106" height="95" viewBox="0 0 106 95" fill="none" xmlns="http://www.w3.org/2000/svg">
<path d="M92.6724 60.4296C123.626 46.6447 91.6544 7.81804 59.7291 1.07474C27.8038 -5.66855 -25.6915 20.2538 16.6466 52.7122C58.9846 85.1706 26.1572 93.9731 35.955 93.9731C45.7528 93.9731 61.7186 74.2145 92.6724 60.4296Z" fill="#C3CBE0"/>
<path d="M11.3742 56.7625C-3.90631 47.3024 -2.1453 34.281 6.99205 22.7892C14.7546 13.0263 28.4191 4.73503 43.0419 1.66132C74.8773 -5.03047 129.801 30.7267 90.624 54.284C67.8396 67.9844 67.8786 79.5206 69.9783 86.776C71.489 91.996 74.0664 95.0001 69.9783 95.0001C60.2081 95.0001 39.636 74.2593 11.3742 56.7625Z" fill="#8DD8DA"/>
<ellipse cx="14.962" cy="11.3028" rx="14.962" ry="11.3028" transform="matrix(0.961117 -0.276143 -0.275132 -0.961406 21.8188 59.187)" fill="white"/>
<ellipse cx="4.43501" cy="3.35036" rx="4.43501" ry="3.35036" transform="matrix(0.961117 -0.276143 -0.275132 -0.961406 42.0239 30.4005)" fill="white"/>
<ellipse cx="4.43501" cy="3.35036" rx="4.43501" ry="3.35036" transform="matrix(0.965926 0.258819 0.259834 -0.965653 53.2695 28.042)" fill="white"/>
<ellipse cx="14.962" cy="11.3028" rx="14.962" ry="11.3028" transform="matrix(0.965926 0.258819 0.259834 -0.965653 50.7217 51.231)" fill="white"/>
<ellipse cx="7.59589" cy="2.75222" rx="7.59589" ry="2.75222" transform="matrix(0.968755 -0.24802 -0.247001 -0.969015 28.061 48.5983)" fill="#858EA6"/>
<ellipse cx="7.59589" cy="2.56602" rx="7.59589" ry="2.56602" transform="matrix(0.965518 0.260337 0.261352 -0.965244 60.0093 44.8207)" fill="#858EA6"/>
</svg>
